<svg viewBox="1400 40 240 280" fill="none" xmlns="http://www.w3.org/2000/svg">
  <path transform="translate(1521,56)" d="m0 0 11 1 16 3 16 6 11 6 12 9 12 12 9 13 7 14 5 15 2 15v17l-2 15-6 17-9 17-11 13-11 10-14 9-13 6-13 4-12 2h-10l-1-1v-7l-14-3-12-5-8-6-7-7-8-16-2-8v-15l5-15 6-9 10-10 14-7 7-2h10v22l-12 4-9 6-5 8-1 3v16l5 10 10 7 11 2 1 1v10l7-2 12-2 16-6 14-9 7-6 10-14 6-12 4-15 1-6v-17l-4-17-8-16-7-9-10-10-11-7-11-5-16-4-11-2z" fill="#171413"/>
  <path transform="translate(1519,97)" d="m0 0h2v11h9l12 4 10 6 10 10 7 14 2 7v18l-4 13-7 11-8 8-8 5-10 4-13 2-1-4 1-20 13-4 8-7 4-7 1-13-2-8-6-9-9-5-9-3-1-2 1-7-16 2-16 5-13 7-11 9-7 8-8 13-5 12-3 15v15l4 17 5 12 6 10 9 10 9 8 15 8 13 4 17 2 1 1v21l-1 1h-14l-17-4-15-6-13-8-11-9-9-9-10-15-7-15-5-19v-32l4-16 7-16 7-12 11-13 11-9 14-9 11-5 13-4z" fill="#171413"/>
</svg>
